<svg xmlns="http://www.w3.org/2000/svg" width="164" height="164" viewBox="0 0 1024 1024" version="1.1">
<path fill="#000" d="M 476 0.605 C 474.075 0.819, 467.325 1.473, 461 2.059 C 432.700 4.680, 399.036 11.149, 369.647 19.615 C 265.799 49.529, 174.212 111.813, 106.317 198.695 C 96.188 211.657, 75.557 242.441, 67.243 257 C 31.544 319.508, 9.963 386.959, 1.812 461.500 C 0.960 469.295, 0.500 486.992, 0.500 512 C 0.500 551.374, 1.068 560.683, 5.134 588 C 18.986 681.062, 58.239 768.223, 119.092 841.046 C 140.148 866.245, 171.516 896.444, 198.695 917.683 C 211.657 927.812, 242.441 948.443, 257 956.757 C 319.508 992.456, 386.959 1014.037, 461.500 1022.188 C 477.792 1023.969, 546.208 1023.969, 562.500 1022.188 C 637.041 1014.037, 704.492 992.456, 767 956.757 C 781.559 948.443, 812.343 927.812, 825.305 917.683 C 870.640 882.256, 910.358 839.193, 941.226 792 C 986.560 722.690, 1015.696 639.361, 1022.020 560.923 C 1022.660 552.990, 1023.592 545.719, 1024.091 544.764 C 1025.375 542.310, 1025.286 477.705, 1024 478.500 C 1023.387 478.879, 1022.996 477.258, 1022.990 474.309 C 1022.985 471.664, 1022.305 463.425, 1021.479 456 C 1013.670 385.814, 991.642 318.082, 956.757 257 C 948.443 242.441, 927.812 211.657, 917.683 198.695 C 896.444 171.516, 866.245 140.148, 841.046 119.092 C 769.768 59.530, 685.177 20.822, 594 6.049 C 566.071 1.523, 555.618 0.768, 517 0.488 C 496.375 0.338, 477.925 0.390, 476 0.605 M 385 127 L 385 152 397.500 152 L 410 152 410 177.500 L 410 203 435.500 203 L 461 203 461 177.500 L 461 152 448.500 152 L 436 152 436 127 L 436 102 410.500 102 L 385 102 385 127 M 588 127 L 588 152 575.500 152 L 563 152 563 177.500 L 563 203 588.500 203 L 614 203 614 177.500 L 614 152 626.500 152 L 639 152 639 127 L 639 102 613.500 102 L 588 102 588 127 M 410 254 L 410 271 393.500 271 L 377 271 377 288 L 377 305 360 305 L 343 305 343 322 L 343 339 326 339 L 309 339 309 474 L 309 609 326 609 L 343 609 343 626 L 343 643 360 643 L 377 643 377 660 L 377 677 393.500 677 L 410 677 410 694 L 410 711 512 711 L 614 711 614 694 L 614 677 630.500 677 L 647 677 647 660 L 647 643 664 643 L 681 643 681 626 L 681 609 698 609 L 715 609 715 575.500 L 715 542 681 542 L 647 542 647 558.500 L 647 575 630.500 575 L 614 575 614 592 L 614 609 597 609 L 580 609 580 626 L 580 643 512 643 L 444 643 444 626 L 444 609 427 609 L 410 609 410 592 L 410 575 393.500 575 L 377 575 377 473.500 L 377 372 393.500 372 L 410 372 410 355.500 L 410 339 427 339 L 444 339 444 322 L 444 305 512 305 L 580 305 580 322 L 580 339 597 339 L 614 339 614 355.500 L 614 372 630.500 372 L 647 372 647 389 L 647 406 681 406 L 715 406 715 372.500 L 715 339 698 339 L 681 339 681 322 L 681 305 664 305 L 647 305 647 288 L 647 271 630.500 271 L 614 271 614 254 L 614 237 512 237 L 410 237 410 254 M 0.448 512 C 0.448 530.425, 0.583 537.962, 0.748 528.750 C 0.913 519.538, 0.913 504.462, 0.748 495.250 C 0.583 486.038, 0.448 493.575, 0.448 512 M 410 757.500 L 410 770 448 770 L 486 770 486 795.500 L 486 821 448 821 L 410 821 410 833.500 L 410 846 447.988 846 L 485.976 846 486.238 884.250 L 486.500 922.500 512 922.500 L 537.500 922.500 537.762 884.250 L 538.024 846 576.012 846 L 614 846 614 833.500 L 614 821 576 821 L 538 821 538 795.500 L 538 770 576 770 L 614 770 614 757.500 L 614 745 512 745 L 410 745 410 757.500" stroke="none" fill-rule="evenodd"/>
<path fill="#6D6D6D
" d="M 385 127 L 385 152 397.500 152 L 410 152 410 177.500 L 410 203 435.500 203 L 461 203 461 177.500 L 461 152 448.500 152 L 436 152 436 127 L 436 102 410.500 102 L 385 102 385 127 M 588 127 L 588 152 575.500 152 L 563 152 563 177.500 L 563 203 588.500 203 L 614 203 614 177.500 L 614 152 626.500 152 L 639 152 639 127 L 639 102 613.500 102 L 588 102 588 127 M 410 254 L 410 271 393.500 271 L 377 271 377 288 L 377 305 360 305 L 343 305 343 322 L 343 339 326 339 L 309 339 309 474 L 309 609 326 609 L 343 609 343 626 L 343 643 360 643 L 377 643 377 660 L 377 677 393.500 677 L 410 677 410 694 L 410 711 512 711 L 614 711 614 694 L 614 677 630.500 677 L 647 677 647 660 L 647 643 664 643 L 681 643 681 626 L 681 609 698 609 L 715 609 715 575.500 L 715 542 681 542 L 647 542 647 558.500 L 647 575 630.500 575 L 614 575 614 592 L 614 609 597 609 L 580 609 580 626 L 580 643 512 643 L 444 643 444 626 L 444 609 427 609 L 410 609 410 592 L 410 575 393.500 575 L 377 575 377 473.500 L 377 372 393.500 372 L 410 372 410 355.500 L 410 339 427 339 L 444 339 444 322 L 444 305 512 305 L 580 305 580 322 L 580 339 597 339 L 614 339 614 355.500 L 614 372 630.500 372 L 647 372 647 389 L 647 406 681 406 L 715 406 715 372.500 L 715 339 698 339 L 681 339 681 322 L 681 305 664 305 L 647 305 647 288 L 647 271 630.500 271 L 614 271 614 254 L 614 237 512 237 L 410 237 410 254 M 410 757.500 L 410 770 448 770 L 486 770 486 795.500 L 486 821 448 821 L 410 821 410 833.500 L 410 846 447.988 846 L 485.976 846 486.238 884.250 L 486.500 922.500 512 922.500 L 537.500 922.500 537.762 884.250 L 538.024 846 576.012 846 L 614 846 614 833.500 L 614 821 576 821 L 538 821 538 795.500 L 538 770 576 770 L 614 770 614 757.500 L 614 745 512 745 L 410 745 410 757.500" stroke="none" fill-rule="evenodd"/></svg>